<?xml version="1.0" standalone="no"?>
<!DOCTYPE svg PUBLIC "-//W3C//DTD SVG 20010904//EN"
 "http://www.w3.org/TR/2001/REC-SVG-20010904/DTD/svg10.dtd">
<svg version="1.0" xmlns="http://www.w3.org/2000/svg"
 width="1920.000000pt" height="1080.000000pt" viewBox="0 0 1920.000000 1080.000000"
 preserveAspectRatio="xMidYMid meet">

<g transform="translate(0.000000,1080.000000) scale(0.100000,-0.100000)"
fill="#000000" stroke="none">
<path d="M8150 8059 c-294 -34 -611 -150 -854 -313 -545 -366 -884 -962 -971
-1706 -20 -164 -19 -497 0 -670 50 -442 181 -840 390 -1185 286 -471 681 -772
1321 -1008 170 -62 453 -151 460 -144 3 2 -28 24 -68 48 -373 223 -737 594
-956 974 -139 242 -244 506 -306 765 -112 474 -90 990 60 1447 181 550 532
1014 1011 1335 146 99 430 240 590 293 l128 42 -35 15 c-226 95 -520 136 -770
107z"/>
<path d="M11530 8051 c-47 -10 -107 -26 -135 -36 -124 -42 -375 -187 -438
-253 l-29 -30 49 -27 c112 -64 173 -101 253 -158 388 -274 685 -614 889 -1017
35 -69 69 -128 75 -132 19 -13 208 -9 261 6 117 31 203 95 245 181 34 71 25
161 -38 350 -210 636 -488 1011 -822 1109 -88 26 -211 29 -310 7z"/>
<path d="M8880 7891 c-560 -183 -1042 -554 -1361 -1046 -183 -282 -299 -585
-355 -930 -25 -153 -26 -479 -1 -625 47 -280 147 -550 292 -791 106 -177 251
-364 350 -450 19 -17 33 -35 30 -39 -3 -5 5 -17 18 -27 19 -14 21 -21 12 -30
-7 -6 -24 -10 -39 -9 -15 2 -28 0 -31 -4 -4 -6 2 -8 43 -11 9 -1 29 -12 43
-23 21 -18 23 -24 12 -34 -7 -7 -19 -10 -26 -7 -6 3 -4 0 6 -7 10 -7 28 -21
39 -30 12 -10 25 -18 30 -18 12 0 -10 22 -37 38 -11 6 -15 12 -9 12 19 0 76
-48 62 -52 -14 -5 48 -48 70 -48 6 0 12 -4 12 -9 0 -4 20 -14 45 -21 25 -7 45
-16 45 -21 0 -14 -66 15 -200 89 -39 21 -42 21 -20 3 34 -28 166 -105 210
-121 19 -7 58 -21 85 -31 28 -10 42 -18 32 -19 -34 0 -244 90 -281 121 -6 5
-29 21 -51 35 l-40 25 45 -42 c27 -24 37 -38 25 -35 -14 5 -12 0 10 -18 17
-14 35 -25 40 -25 6 0 -1 9 -14 19 -26 23 -16 27 14 6 38 -25 176 -95 213
-107 20 -6 51 -17 67 -24 48 -20 155 -52 220 -65 33 -7 65 -16 70 -20 6 -4 32
-11 58 -14 27 -4 46 -10 43 -13 -6 -7 -122 15 -145 27 -9 5 -43 15 -76 23
-104 26 -172 47 -201 62 -16 8 -33 15 -38 15 -13 0 -129 52 -146 66 -8 6 -26
15 -40 18 l-25 7 25 -20 c31 -25 160 -90 260 -131 41 -17 60 -28 41 -24 -47 9
-191 73 -266 119 -56 35 -122 69 -110 58 62 -58 271 -173 410 -225 88 -33 281
-96 405 -133 240 -69 500 -162 619 -220 165 -81 323 -146 409 -167 23 -6 42
-15 42 -19 0 -20 -210 59 -415 156 -55 26 -118 54 -139 61 -22 8 -44 18 -50
23 -6 4 -24 11 -41 15 -16 4 -43 13 -60 21 -41 18 -165 59 -255 85 -378 110
-513 157 -675 236 -119 58 -153 77 -202 112 -42 30 -51 28 -16 -4 22 -21 24
-25 8 -20 -28 8 21 -32 120 -99 99 -66 262 -148 420 -209 66 -26 129 -51 140
-56 11 -4 92 -31 180 -60 88 -28 169 -55 180 -60 11 -5 67 -25 125 -44 110
-37 191 -66 300 -109 61 -24 162 -57 275 -90 28 -9 86 -21 130 -28 44 -7 84
-16 89 -21 13 -11 -14 -10 -66 2 -24 6 -83 20 -133 31 -98 23 -214 60 -340
109 -100 39 -408 148 -455 162 -52 14 -182 58 -205 68 -11 5 -62 23 -114 41
-52 17 -106 38 -120 45 -14 8 -30 14 -34 14 -10 0 -119 50 -220 101 -82 41
-182 102 -230 139 -15 12 -30 20 -32 18 -8 -8 161 -126 266 -185 142 -80 370
-180 554 -242 592 -202 817 -274 905 -291 30 -5 75 -14 100 -19 25 -5 84 -12
130 -14 47 -2 68 -2 48 0 -57 6 -45 20 13 15 35 -2 49 0 45 7 -4 6 -19 11 -34
11 -91 0 -371 80 -564 161 -171 72 -300 122 -398 155 -58 19 -112 38 -120 43
-9 5 -31 12 -50 16 -35 7 -167 48 -205 64 -11 5 -58 21 -105 36 -185 60 -391
154 -529 242 -29 19 -51 37 -48 40 3 3 34 -14 69 -37 70 -46 267 -144 368
-183 87 -34 457 -157 471 -157 6 0 25 -6 42 -14 18 -7 77 -28 132 -46 55 -18
150 -53 210 -78 61 -24 133 -53 160 -64 28 -11 55 -23 60 -27 35 -27 392 -128
475 -135 25 -2 33 -1 18 1 -16 2 -28 8 -28 12 0 5 -21 12 -47 16 -72 10 -93
16 -93 27 0 6 7 7 16 4 37 -14 64 -18 64 -8 0 5 -17 13 -37 17 -21 4 -51 13
-68 20 -16 8 -61 26 -100 41 -38 15 -163 73 -276 130 -113 57 -209 104 -213
104 -5 0 -22 7 -39 15 -41 18 -291 101 -337 110 -19 4 -41 11 -50 16 -8 5 -42
16 -75 24 -37 9 -45 12 -20 9 45 -6 179 -42 305 -84 149 -48 270 -100 440
-185 236 -119 319 -155 450 -192 72 -20 80 -26 50 -35 -16 -5 -9 -6 20 -2 24
3 49 9 55 13 5 5 24 13 40 20 l30 11 -30 -6 c-76 -14 -80 -14 -45 0 30 12 32
15 16 21 -17 8 -17 9 5 22 18 11 19 13 4 8 -53 -18 -87 -26 -93 -21 -3 3 3 6
14 6 10 1 -14 17 -55 36 -40 19 -71 37 -68 40 2 3 24 -5 48 -18 25 -13 60 -22
82 -22 30 1 35 -1 26 -12 -17 -21 3 -16 31 7 l25 20 -25 -7 -25 -7 19 22 c17
18 17 21 3 15 -9 -3 -17 -10 -17 -15 0 -5 -7 -9 -15 -9 -22 0 -18 16 8 27 l22
10 -22 7 c-13 4 -23 12 -23 17 0 5 -6 9 -14 9 -8 0 -28 11 -43 25 l-28 24 33
-11 c17 -7 32 -16 32 -21 0 -4 5 -5 10 -2 5 3 10 1 10 -5 0 -6 4 -9 9 -6 5 4
11 3 13 -2 6 -14 213 -110 293 -135 157 -49 348 -59 505 -27 141 29 338 110
490 200 241 142 532 435 716 720 137 212 253 471 315 705 62 231 90 436 92
672 l2 165 -50 45 c-59 52 -333 238 -340 231 -3 -3 0 -29 6 -58 9 -42 9 -54
-2 -61 -21 -12 -36 8 -43 56 -8 49 -15 58 -35 45 -10 -6 -12 -21 -7 -59 6 -47
5 -51 -13 -51 -14 0 -22 9 -27 28 -11 51 -23 72 -39 66 -17 -7 -18 -23 -6 -77
8 -32 6 -39 -10 -48 -22 -12 -22 -13 -44 85 -9 43 -12 73 -6 79 5 5 40 15 77
23 37 8 69 16 71 18 4 3 -147 85 -462 249 -309 161 -498 276 -633 384 -29 24
-48 33 -60 28 -14 -6 -7 -15 37 -56 l54 -48 -41 -53 c-23 -29 -55 -68 -70 -86
l-28 -34 -49 41 c-27 23 -53 41 -56 41 -4 0 -93 -107 -198 -237 l-191 -238 0
-51 c0 -68 41 -148 91 -177 33 -19 40 -20 78 -7 32 10 49 11 80 1 87 -26 131
-132 139 -332 4 -113 2 -135 -19 -200 -30 -96 -30 -193 0 -269 27 -68 53 -99
133 -153 56 -38 63 -47 66 -80 2 -28 -2 -42 -22 -62 -34 -34 -61 -32 -132 10
-114 67 -190 172 -216 298 -7 31 -16 57 -21 57 -4 0 -15 -17 -24 -37 -21 -50
-21 -153 1 -226 20 -68 10 -103 -37 -125 -88 -42 -145 80 -135 283 4 81 10
105 37 160 18 36 57 92 87 124 l54 59 0 68 c0 38 -5 96 -11 129 -21 111 -21
109 41 117 64 8 106 44 94 81 -11 40 -31 46 -148 44 -139 -2 -160 8 -201 90
-16 32 -30 60 -32 62 -1 2 -12 -4 -23 -14 -11 -10 -21 -16 -23 -14 -1 2 -13
16 -26 31 l-23 27 46 56 c37 46 46 64 46 96 0 29 6 42 24 54 13 8 30 13 39 10
11 -5 63 53 186 207 l172 213 -53 46 -52 46 63 79 c35 44 68 81 73 82 5 2 30
-12 55 -32 45 -35 68 -41 68 -19 0 6 -45 50 -100 99 -55 49 -290 279 -522 512
l-421 423 -59 -3 c-45 -2 -59 -7 -61 -20 -3 -14 7 -17 60 -20 55 -3 63 -5 63
-23 0 -18 -8 -20 -87 -23 l-88 -3 0 110 0 109 -31 26 c-102 86 -442 286 -485
286 -10 -1 -57 -13 -104 -29z m264 -335 c46 -19 66 -52 66 -107 0 -40 -4 -51
-30 -73 -45 -37 -140 -60 -154 -37 -9 13 -45 195 -41 200 4 3 100 28 118 30 4
1 23 -5 41 -13z m-438 -180 c28 -28 34 -42 34 -76 0 -141 -210 -163 -236 -25
-12 67 53 135 130 135 30 0 45 -7 72 -34z m-466 -215 c0 -26 -15 -41 -41 -41
-31 0 -49 -23 -49 -61 0 -34 28 -59 66 -59 27 0 36 6 49 30 16 32 42 40 51 16
14 -36 -58 -106 -109 -106 -56 0 -117 59 -117 115 0 33 35 89 65 104 26 12 85
14 85 2z m2279 -1359 c47 -23 72 -61 78 -114 6 -50 -10 -89 -52 -128 -23 -21
-36 -25 -91 -25 -60 0 -66 2 -100 37 -32 31 -38 45 -42 90 -3 44 0 59 20 88
27 40 79 70 123 70 17 0 45 -8 64 -18z m-1345 -34 c-3 -13 -13 -38 -20 -57 -8
-18 -14 -35 -14 -37 0 -9 113 -93 120 -89 4 3 2 26 -6 52 -19 62 -18 77 9 118
l22 35 93 0 c57 0 92 -4 92 -10 0 -6 -9 -30 -20 -52 l-20 -42 31 -29 32 -28
-22 -39 c-11 -21 -21 -41 -21 -45 0 -4 21 5 46 20 l46 27 34 -33 33 -34 -55
-119 c-30 -65 -54 -125 -54 -133 0 -11 15 -12 80 -7 l80 7 0 -457 0 -456 -660
0 -660 0 0 708 c0 390 3 712 7 715 3 4 193 7 420 7 l414 0 -7 -22z m485 -90
c-1 -24 -4 -55 -8 -70 l-6 -27 -62 56 c-35 30 -63 59 -63 63 0 9 37 16 103 18
l37 2 -1 -42z m408 -125 c10 -15 37 -46 61 -69 62 -61 121 -79 257 -79 l110 0
3 -26 c4 -34 -13 -47 -79 -59 -107 -21 -273 22 -342 88 -41 38 -87 107 -87
129 0 47 50 57 77 16z m-57 -111 c0 -17 -38 -72 -50 -72 -5 0 -21 11 -36 23
l-27 24 34 46 34 46 22 -27 c13 -15 23 -33 23 -40z m2058 -247 c5 -72 -12
-120 -47 -134 -31 -14 -74 -6 -92 15 -10 12 -17 12 -45 -5 -21 -12 -36 -16
-40 -10 -12 20 6 54 36 71 39 22 37 52 -3 56 -30 4 -43 22 -33 47 5 13 24 15
113 13 l108 -3 3 -50z m-196 -453 c-25 -35 -33 -65 -22 -76 12 -11 18 -5 63
59 21 29 61 33 89 8 25 -22 24 -89 -3 -132 -19 -32 -21 -33 -40 -15 -17 15
-18 19 -4 34 19 21 24 61 8 67 -7 2 -24 -14 -38 -37 -38 -60 -92 -73 -116 -27
-18 32 -5 114 22 143 21 22 24 23 38 9 13 -12 13 -19 3 -33z m-2023 -308 l85
-49 -55 -7 c-30 -4 -66 -10 -81 -12 -25 -5 -28 -1 -46 47 -11 29 -23 63 -27
77 -7 23 -7 24 16 9 13 -9 62 -38 108 -65z m196 -14 c14 -27 23 -50 21 -50
-14 0 -116 42 -116 48 0 8 52 51 62 52 4 0 19 -22 33 -50z m125 0 c0 -22 -3
-40 -7 -40 -11 0 -73 51 -73 60 0 8 19 13 68 19 8 0 12 -13 12 -39z m-2250
-450 c8 -5 11 -10 5 -10 -5 0 -17 5 -25 10 -8 5 -10 10 -5 10 6 0 17 -5 25
-10z m20 -41 c10 -6 5 -7 -15 -3 l-30 5 24 -20 c32 -29 12 -26 -28 3 -45 33
-3 46 49 15z m75 1 c13 -5 14 -9 5 -9 -8 0 -24 4 -35 9 -13 5 -14 9 -5 9 8 0
24 -4 35 -9z m-20 -30 c13 -6 15 -9 5 -9 -8 0 -22 4 -30 9 -18 12 -2 12 25 0z
m82 4 c-3 -3 -12 -4 -19 -1 -8 3 -5 6 6 6 11 1 17 -2 13 -5z m71 -11 c-10 -2
-26 -2 -35 0 -10 3 -2 5 17 5 19 0 27 -2 18 -5z m-101 -9 c-3 -3 -12 -4 -19
-1 -8 3 -5 6 6 6 11 1 17 -2 13 -5z m206 -1 c-13 -2 -35 -2 -50 0 -16 2 -5 4
22 4 28 0 40 -2 28 -4z m-277 -41 c-6 -5 -56 21 -56 29 0 5 13 0 29 -9 16 -9
28 -18 27 -20z m119 28 c3 -5 -1 -10 -10 -10 -9 0 -13 5 -10 10 3 6 8 10 10
10 2 0 7 -4 10 -10z m563 -5 c3 -3 -51 -5 -121 -5 -69 0 -128 3 -130 8 -6 8
243 5 251 -3z m-643 -5 c13 -6 15 -9 5 -9 -8 0 -22 4 -30 9 -18 12 -2 12 25 0z
m138 -7 c-7 -2 -21 -2 -30 0 -10 3 -4 5 12 5 17 0 24 -2 18 -5z m650 0 c-13
-2 -33 -2 -45 0 -13 2 -3 4 22 4 25 0 35 -2 23 -4z m-575 -10 c-10 -2 -26 -2
-35 0 -10 3 -2 5 17 5 19 0 27 -2 18 -5z m670 0 c-10 -2 -26 -2 -35 0 -10 3
-2 5 17 5 19 0 27 -2 18 -5z m-888 -13 c0 -5 -2 -10 -4 -10 -3 0 -8 5 -11 10
-3 6 -1 10 4 10 6 0 11 -4 11 -10z m90 0 c0 -5 -2 -10 -4 -10 -3 0 -8 5 -11
10 -3 6 -1 10 4 10 6 0 11 -4 11 -10z m245 0 c3 -5 -1 -10 -9 -10 -9 0 -16 5
-16 10 0 6 4 10 9 10 6 0 13 -4 16 -10z m615 0 c0 -5 -2 -10 -4 -10 -3 0 -8 5
-11 10 -3 6 -1 10 4 10 6 0 11 -4 11 -10z m-895 -20 c13 -5 14 -9 5 -9 -8 0
-24 4 -35 9 -13 5 -14 9 -5 9 8 0 24 -4 35 -9z m98 3 c-7 -2 -21 -2 -30 0 -10
3 -4 5 12 5 17 0 24 -2 18 -5z m425 0 c-21 -2 -57 -2 -80 0 -24 2 -7 4 37 4
44 0 63 -2 43 -4z m429 1 c-3 -3 -12 -4 -19 -1 -8 3 -5 6 6 6 11 1 17 -2 13
-5z m-1002 -18 c11 -7 34 -18 50 -25 l30 -11 -30 6 c-30 5 -99 44 -80 44 6 0
19 -6 30 -14z m208 7 c-7 -2 -21 -2 -30 0 -10 3 -4 5 12 5 17 0 24 -2 18 -5z
m520 0 c-13 -2 -33 -2 -45 0 -13 2 -3 4 22 4 25 0 35 -2 23 -4z m314 1 c-3 -3
-12 -4 -19 -1 -8 3 -5 6 6 6 11 1 17 -2 13 -5z m-942 -14 c3 -5 2 -10 -4 -10
-5 0 -13 5 -16 10 -3 6 -2 10 4 10 5 0 13 -4 16 -10z m190 0 c3 -5 -3 -10 -14
-10 -12 0 -21 5 -21 10 0 6 6 10 14 10 8 0 18 -4 21 -10z m541 -3 c4 -4 0 -7
-9 -7 -9 0 -18 4 -21 9 -7 10 20 9 30 -2z m-683 -14 c-7 -2 -19 -2 -25 0 -7 3
-2 5 12 5 14 0 19 -2 13 -5z m265 0 c-16 -2 -40 -2 -55 0 -16 2 -3 4 27 4 30
0 43 -2 28 -4z m495 0 c-7 -2 -21 -2 -30 0 -10 3 -4 5 12 5 17 0 24 -2 18 -5z
m-700 -10 c-7 -2 -21 -2 -30 0 -10 3 -4 5 12 5 17 0 24 -2 18 -5z m355 0 c-15
-2 -42 -2 -60 0 -18 2 -6 4 27 4 33 0 48 -2 33 -4z m405 0 c-7 -2 -21 -2 -30
0 -10 3 -4 5 12 5 17 0 24 -2 18 -5z m-858 -13 c3 -5 2 -10 -4 -10 -5 0 -13 5
-16 10 -3 6 -2 10 4 10 5 0 13 -4 16 -10z m160 0 c7 -12 -2 -12 -30 0 -19 8
-19 9 2 9 12 1 25 -3 28 -9z m406 1 c-12 -8 -51 -4 -51 5 0 2 15 4 33 4 22 0
28 -3 18 -9z m-524 -17 c-3 -3 -12 -4 -19 -1 -8 3 -5 6 6 6 11 1 17 -2 13 -5z
m191 -1 c-10 -2 -26 -2 -35 0 -10 3 -2 5 17 5 19 0 27 -2 18 -5z m440 0 c-10
-2 -26 -2 -35 0 -10 3 -2 5 17 5 19 0 27 -2 18 -5z m448 -9 c19 -15 19 -15 -1
-6 -11 5 -27 12 -35 15 -13 5 -13 6 1 6 8 1 24 -6 35 -15z m-1033 -1 c-7 -2
-19 -2 -25 0 -7 3 -2 5 12 5 14 0 19 -2 13 -5z m240 0 c-13 -2 -33 -2 -45 0
-13 2 -3 4 22 4 25 0 35 -2 23 -4z m425 0 c-10 -2 -28 -2 -40 0 -13 2 -5 4 17
4 22 1 32 -1 23 -4z m229 1 c-3 -3 -12 -4 -19 -1 -8 3 -5 6 6 6 11 1 17 -2 13
-5z m-847 -14 c0 -5 -7 -7 -15 -4 -8 4 -15 8 -15 10 0 2 7 4 15 4 8 0 15 -4
15 -10z m298 0 c-10 -6 -25 -7 -40 -1 -20 9 -18 10 17 10 31 0 36 -2 23 -9z
m379 4 c-3 -3 -12 -4 -19 -1 -8 3 -5 6 6 6 11 1 17 -2 13 -5z m-770 -20 c-3
-3 -12 -4 -19 -1 -8 3 -5 6 6 6 11 1 17 -2 13 -5z m156 -1 c-7 -2 -19 -2 -25
0 -7 3 -2 5 12 5 14 0 19 -2 13 -5z m355 0 c-10 -2 -28 -2 -40 0 -13 2 -5 4
17 4 22 1 32 -1 23 -4z m342 -3 c20 -6 21 -8 5 -8 -11 0 -31 4 -45 8 -20 6
-21 8 -5 8 11 0 31 -4 45 -8z m296 -6 c18 -14 18 -14 -6 -3 -31 14 -36 19 -24
19 6 0 19 -7 30 -16z m-1081 -4 c25 -11 -1 -11 -35 0 -20 6 -21 8 -5 8 11 0
29 -3 40 -8z m163 3 c-10 -2 -26 -2 -35 0 -10 3 -2 5 17 5 19 0 27 -2 18 -5z
m360 0 c-10 -2 -28 -2 -40 0 -13 2 -5 4 17 4 22 1 32 -1 23 -4z m-285 -10 c-7
-2 -21 -2 -30 0 -10 3 -4 5 12 5 17 0 24 -2 18 -5z m360 0 c-7 -2 -21 -2 -30
0 -10 3 -4 5 12 5 17 0 24 -2 18 -5z m-530 -20 c-7 -2 -19 -2 -25 0 -7 3 -2 5
12 5 14 0 19 -2 13 -5z m255 0 c-10 -2 -26 -2 -35 0 -10 3 -2 5 17 5 19 0 27
-2 18 -5z m335 0 c-7 -2 -19 -2 -25 0 -7 3 -2 5 12 5 14 0 19 -2 13 -5z m257
-8 c19 -7 28 -13 20 -13 -8 0 -31 6 -50 13 -19 7 -28 13 -20 13 8 0 31 -6 50
-13z m135 -5 c3 -5 -4 -6 -15 -3 -11 3 -22 9 -25 13 -3 5 4 6 15 3 11 -3 22
-9 25 -13z m140 -45 l50 -47 -60 48 c-76 61 -85 69 -60 56 11 -6 43 -32 70
-57z m-1062 48 c-7 -2 -21 -2 -30 0 -10 3 -4 5 12 5 17 0 24 -2 18 -5z m280 0
c-13 -2 -33 -2 -45 0 -13 2 -3 4 22 4 25 0 35 -2 23 -4z m310 0 c-7 -2 -19 -2
-25 0 -7 3 -2 5 12 5 14 0 19 -2 13 -5z m-540 -10 c-7 -2 -19 -2 -25 0 -7 3
-2 5 12 5 14 0 19 -2 13 -5z m310 0 c-7 -2 -21 -2 -30 0 -10 3 -4 5 12 5 17 0
24 -2 18 -5z m274 1 c-3 -3 -12 -4 -19 -1 -8 3 -5 6 6 6 11 1 17 -2 13 -5z
m-657 -29 c30 -7 46 -14 35 -14 -11 0 -42 6 -70 13 -65 18 -37 19 35 1z m153
8 c-7 -2 -21 -2 -30 0 -10 3 -4 5 12 5 17 0 24 -2 18 -5z m305 0 c-10 -2 -26
-2 -35 0 -10 3 -2 5 17 5 19 0 27 -2 18 -5z m249 1 c-3 -3 -12 -4 -19 -1 -8 3
-5 6 6 6 11 1 17 -2 13 -5z m173 -4 c8 -5 11 -10 5 -10 -5 0 -17 5 -25 10 -8
5 -10 10 -5 10 6 0 17 -5 25 -10z m130 -16 c0 -2 -9 0 -20 6 -11 6 -20 13 -20
16 0 2 9 0 20 -6 11 -6 20 -13 20 -16z m-792 9 c-10 -2 -26 -2 -35 0 -10 3 -2
5 17 5 19 0 27 -2 18 -5z m305 0 c-7 -2 -21 -2 -30 0 -10 3 -4 5 12 5 17 0 24
-2 18 -5z m242 -3 c13 -5 14 -9 5 -9 -8 0 -24 4 -35 9 -13 5 -14 9 -5 9 8 0
24 -4 35 -9z m-482 -7 c-7 -2 -21 -2 -30 0 -10 3 -4 5 12 5 17 0 24 -2 18 -5z
m290 0 c-7 -2 -19 -2 -25 0 -7 3 -2 5 12 5 14 0 19 -2 13 -5z m-408 -28 c76
-16 53 -19 -32 -4 -35 6 -63 16 -63 21 0 6 8 7 18 3 9 -4 44 -13 77 -20z m195
9 c0 -2 -9 -4 -21 -4 -11 0 -18 4 -14 10 5 8 35 3 35 -6z m265 6 c3 -5 -1 -10
-9 -10 -9 0 -16 5 -16 10 0 6 4 10 9 10 6 0 13 -4 16 -10z m-207 -17 c-10 -2
-26 -2 -35 0 -10 3 -2 5 17 5 19 0 27 -2 18 -5z m282 -3 c20 -6 21 -8 5 -8
-11 0 -31 4 -45 8 -20 6 -21 8 -5 8 11 0 31 -4 45 -8z m393 -32 c23 -24 31
-34 18 -23 -38 30 -75 65 -68 65 4 0 26 -19 50 -42z m-610 25 c-7 -2 -21 -2
-30 0 -10 3 -4 5 12 5 17 0 24 -2 18 -5z m-203 -19 c0 -2 -7 -4 -15 -4 -8 0
-15 4 -15 10 0 5 7 7 15 4 8 -4 15 -8 15 -10z m255 6 c3 -5 -1 -10 -9 -10 -9
0 -16 5 -16 10 0 6 4 10 9 10 6 0 13 -4 16 -10z m567 -76 c51 -41 94 -81 96
-87 2 -8 1 -8 -5 -2 -16 20 -184 155 -194 155 -5 0 -9 5 -9 11 0 13 3 11 112
-77z m-127 32 c21 -14 34 -26 28 -26 -5 0 -24 11 -43 25 -19 14 -39 25 -46 25
-7 0 -16 4 -19 10 -9 15 35 -4 80 -34z m225 -11 c30 -30 52 -55 49 -55 -2 0
-29 25 -59 55 -30 30 -52 55 -49 55 2 0 29 -25 59 -55z m-825 35 c42 -11 1
-11 -50 -1 -34 7 -35 9 -10 9 17 0 44 -4 60 -8z m245 0 c20 -6 21 -8 5 -8 -11
0 -31 4 -45 8 -20 6 -21 8 -5 8 11 0 31 -4 45 -8z m185 0 c13 -5 14 -9 5 -9
-8 0 -24 4 -35 9 -13 5 -14 9 -5 9 8 0 24 -4 35 -9z m-705 -37 c30 -8 60 -19
65 -25 7 -8 4 -9 -10 -4 -11 5 -45 14 -75 22 -30 8 -59 20 -65 26 -7 8 -4 9
10 3 11 -4 45 -14 75 -22z m350 17 c12 -8 11 -10 -7 -10 -12 0 -25 5 -28 10
-8 13 15 13 35 0z m241 -5 c34 -16 34 -16 4 -10 -16 4 -34 11 -39 16 -14 13
-3 11 35 -6z m154 5 c3 -5 1 -10 -4 -10 -6 0 -11 5 -11 10 0 6 2 10 4 10 3 0
8 -4 11 -10z m-300 -21 c56 -14 68 -19 64 -23 -2 -2 -35 4 -74 14 -38 11 -61
19 -50 19 11 1 38 -4 60 -10z m375 -16 c11 -10 5 -9 -20 3 -45 22 -52 28 -20
19 14 -4 32 -14 40 -22z m-163 11 c-3 -3 -12 -4 -19 -1 -8 3 -5 6 6 6 11 1 17
-2 13 -5z m408 -4 c3 -5 1 -10 -4 -10 -6 0 -11 5 -11 10 0 6 2 10 4 10 3 0 8
-4 11 -10z m-735 -24 c30 -8 46 -15 35 -15 -25 -1 -125 25 -134 35 -6 7 12 4
99 -20z m368 15 c9 -5 57 -28 105 -52 49 -23 148 -81 220 -129 73 -48 182
-116 244 -151 117 -67 148 -93 47 -39 -96 51 -253 146 -264 160 -23 28 -250
156 -342 194 -21 8 -38 17 -38 20 0 8 8 7 28 -3z m-549 -22 c28 -6 54 -15 57
-21 5 -8 -1 -9 -17 -4 -13 4 -44 13 -69 21 -55 16 -39 19 29 4z m476 -15 c17
-7 48 -20 70 -28 22 -8 35 -15 29 -15 -6 -1 -55 15 -110 35 -58 20 -82 33 -59
29 22 -4 54 -13 70 -21z m278 -5 c48 -31 63 -49 27 -29 -38 20 -93 60 -83 60
5 0 31 -14 56 -31z m127 -33 c36 -28 70 -54 75 -58 6 -4 24 -18 40 -32 63 -49
214 -151 298 -200 55 -31 78 -28 26 3 -37 23 -34 28 6 9 14 -6 25 -15 25 -19
0 -4 12 -10 28 -14 26 -7 27 -7 5 -17 -18 -9 -37 -1 -113 42 -118 67 -425 290
-480 348 -14 15 33 -18 90 -62z m71 47 c13 -16 12 -17 -3 -4 -10 7 -18 15 -18
17 0 8 8 3 21 -13z m-676 -13 c3 -5 -1 -10 -9 -10 -8 0 -18 5 -21 10 -3 6 1
10 9 10 8 0 18 -4 21 -10z m165 -47 c41 -14 79 -29 84 -34 10 -9 -78 15 -109
31 -11 5 -45 16 -75 25 -43 11 -46 14 -15 9 22 -3 74 -17 115 -31z m605 19
c-3 -3 -11 0 -18 7 -9 10 -8 11 6 5 10 -3 15 -9 12 -12z m-115 -97 c52 -37
100 -72 105 -78 21 -21 -42 18 -88 55 -27 21 -52 38 -55 38 -4 1 -25 17 -47
37 -46 41 -44 40 85 -52z m105 65 c10 -11 16 -20 13 -20 -3 0 -13 9 -23 20
-10 11 -16 20 -13 20 3 0 13 -9 23 -20z m-347 -27 c93 -48 120 -63 207 -118
39 -24 85 -52 103 -62 17 -9 32 -20 32 -24 0 -8 -50 20 -218 123 -72 44 -178
99 -212 111 -12 4 -12 6 -1 6 8 1 47 -16 89 -36z m308 9 c-4 -3 -14 2 -24 12
-16 18 -16 18 6 6 13 -6 21 -14 18 -18z m-251 -97 c61 -31 115 -61 120 -65 6
-5 39 -24 75 -43 36 -19 79 -42 95 -51 55 -29 206 -96 217 -96 6 0 8 -3 5 -6
-7 -8 -88 26 -226 94 -138 69 -165 84 -171 91 -8 11 -242 127 -282 140 -21 7
-38 16 -38 21 0 12 83 -22 205 -85z m286 68 c13 -16 12 -17 -3 -4 -10 7 -18
15 -18 17 0 8 8 3 21 -13z m125 -52 c122 -96 150 -119 104 -89 -40 26 -79 56
-132 100 -21 17 -46 37 -55 44 -10 7 -15 14 -12 14 4 0 46 -31 95 -69z m54
-78 c63 -42 86 -61 52 -44 -43 23 -202 139 -202 148 0 3 21 -11 48 -31 26 -20
72 -53 102 -73z m-111 -4 c18 -11 31 -22 28 -25 -2 -3 -22 6 -42 21 -45 30
-34 34 14 4z m29 -98 c42 -22 94 -47 115 -55 20 -8 37 -17 37 -20 0 -9 -219
92 -239 110 -13 12 18 -1 87 -35z m158 -11 c54 -27 92 -50 86 -50 -10 0 -181
85 -191 96 -12 12 17 -1 105 -46z m51 -86 c-3 -3 -12 -4 -19 -1 -8 3 -5 6 6 6
11 1 17 -2 13 -5z m-40 -10 c-3 -3 -12 -4 -19 -1 -8 3 -5 6 6 6 11 1 17 -2 13
-5z m78 -32 c-6 -7 -65 9 -65 17 0 5 15 3 34 -3 19 -6 33 -12 31 -14z m35 18
c0 -5 -5 -10 -11 -10 -5 0 -7 5 -4 10 3 6 8 10 11 10 2 0 4 -4 4 -10z"/>
<path d="M9061 7511 c-12 -8 -12 -18 -1 -71 13 -59 14 -61 39 -55 60 15 77 61
40 109 -21 26 -52 33 -78 17z"/>
<path d="M8576 7338 c-22 -30 -20 -60 4 -86 57 -60 141 16 90 81 -27 34 -72
37 -94 5z"/>
<path d="M11954 5176 c-14 -36 17 -75 50 -63 11 4 16 18 16 42 0 32 -2 35 -30
35 -17 0 -33 -6 -36 -14z"/>
<path d="M9948 3063 c7 -3 16 -2 19 1 4 3 -2 6 -13 5 -11 0 -14 -3 -6 -6z"/>
<path d="M10857 7662 c-54 -71 -89 -155 -95 -227 -6 -76 6 -165 19 -144 20 32
149 -65 149 -113 0 -11 -15 -35 -34 -53 l-34 -31 34 -47 c19 -26 63 -77 99
-115 l65 -67 70 73 c39 39 74 72 79 72 4 0 34 -24 67 -54 51 -46 57 -55 45
-69 -12 -15 -17 -13 -57 19 -37 31 -46 34 -59 24 -14 -12 -11 -18 21 -51 31
-32 35 -40 24 -54 -11 -13 -17 -11 -52 21 -38 34 -41 35 -57 19 -15 -15 -13
-19 27 -54 23 -20 42 -43 42 -51 0 -17 93 -77 212 -138 73 -37 81 -39 124 -30
39 9 47 7 59 -9 8 -10 15 -25 15 -34 0 -12 28 -25 108 -48 110 -32 327 -84
395 -96 l38 -6 -16 38 c-61 146 -254 449 -383 598 -81 94 -294 303 -377 369
-162 130 -436 306 -477 306 -8 0 -30 -22 -51 -48z"/>
<path d="M9550 7545 c0 -9 9 -15 21 -15 18 0 19 2 9 15 -7 8 -16 15 -21 15 -5
0 -9 -7 -9 -15z"/>
<path d="M10805 7220 c-3 -5 0 -22 7 -37 17 -35 52 -38 56 -5 5 35 -46 69 -63
42z"/>
<path d="M12423 5217 c-9 -550 -192 -1083 -523 -1522 -113 -148 -266 -307
-415 -430 -154 -127 -267 -201 -442 -290 -60 -30 -102 -55 -95 -55 29 0 257
54 384 90 585 170 1023 446 1306 825 84 113 176 283 212 392 117 359 13 713
-308 1045 -58 59 -107 108 -111 108 -3 0 -7 -73 -8 -163z"/>
<path d="M7754 4058 c-4 -6 -3 -8 2 -5 14 8 35 -7 38 -27 1 -9 5 -16 9 -16 4
0 12 0 17 0 6 0 -3 14 -20 30 -35 34 -36 34 -46 18z"/>
<path d="M7837 3969 c7 -7 15 -10 18 -7 3 3 -2 9 -12 12 -14 6 -15 5 -6 -5z"/>
<path d="M7835 3901 c-3 -5 -2 -12 3 -15 5 -3 9 1 9 9 0 17 -3 19 -12 6z"/>
<path d="M7867 3889 c7 -7 15 -10 18 -7 3 3 -2 9 -12 12 -14 6 -15 5 -6 -5z"/>
<path d="M7887 3729 c7 -7 15 -10 18 -7 3 3 -2 9 -12 12 -14 6 -15 5 -6 -5z"/>
<path d="M8014 3511 c10 -16 113 -93 184 -137 153 -95 334 -185 497 -248 39
-15 84 -33 100 -41 40 -17 366 -126 480 -160 50 -14 108 -33 130 -40 126 -44
359 -86 458 -84 l52 2 -68 8 c-37 5 -86 14 -110 19 -23 6 -76 19 -117 30 -108
26 -138 36 -520 165 -363 123 -520 182 -658 246 -46 21 -86 39 -89 39 -10 0
-222 126 -282 167 -35 25 -60 40 -57 34z"/>
<path d="M8065 3435 c52 -47 239 -172 335 -225 188 -102 442 -210 635 -270
287 -89 421 -121 504 -120 l36 1 -38 13 c-21 8 -55 17 -75 21 -20 4 -62 15
-92 25 -30 10 -122 39 -205 65 -82 25 -160 50 -172 55 -12 5 -70 26 -130 46
-59 20 -112 41 -117 45 -6 5 -16 9 -23 9 -7 0 -37 11 -67 25 -30 14 -57 25
-61 25 -3 0 -61 27 -128 60 -133 64 -236 123 -362 208 -66 44 -73 47 -40 17z"/>
<path d="M8010 3446 c0 -3 9 -10 20 -16 11 -6 20 -8 20 -6 0 3 -9 10 -20 16
-11 6 -20 8 -20 6z"/>
<path d="M8080 3389 c32 -31 142 -112 244 -179 142 -94 401 -222 560 -276 62
-22 308 -75 339 -74 13 1 6 3 -211 74 -333 108 -666 270 -862 417 -19 14 -48
34 -65 44 l-30 18 25 -24z"/>
<path d="M8073 3363 c26 -43 324 -254 461 -327 63 -33 212 -83 221 -74 2 2
-31 19 -73 38 -180 81 -447 241 -581 348 -19 15 -32 22 -28 15z"/>
<path d="M10060 2980 c-9 -6 -10 -10 -3 -10 6 0 15 5 18 10 8 12 4 12 -15 0z"/>
<path d="M10086 2928 c-11 -6 -40 -17 -65 -24 l-46 -14 45 6 c42 6 100 28 100
39 0 8 -14 5 -34 -7z"/>
<path d="M10100 2900 l-25 -8 27 -1 c15 -1 30 4 33 9 7 11 0 11 -35 0z"/>
<path d="M10073 2853 c9 -2 23 -2 30 0 6 3 -1 5 -18 5 -16 0 -22 -2 -12 -5z"/>
<path d="M10093 2823 c15 -2 37 -2 50 0 12 2 0 4 -28 4 -27 0 -38 -2 -22 -4z"/>
<path d="M9598 2813 c7 -3 16 -2 19 1 4 3 -2 6 -13 5 -11 0 -14 -3 -6 -6z"/>
</g>
</svg>
